<?xml version="1.0" standalone="no"?><!DOCTYPE svg PUBLIC "-//W3C//DTD SVG 1.1//EN" "http://www.w3.org/Graphics/SVG/1.1/DTD/svg11.dtd"><svg t="1774712084761" class="icon" viewBox="0 0 1024 1024" version="1.1" xmlns="http://www.w3.org/2000/svg" p-id="3796" xmlns:xlink="http://www.w3.org/1999/xlink" width="200" height="200"><path d="M753.28 80c-26.24 0-48 21.76-48 48v304.64L295.04 140.8c-19.84-14.08-45.44-16-66.56-5.12-21.76 10.88-35.2 32.64-35.2 56.96v638.72c0 24.32 13.44 46.08 34.56 56.96 9.6 4.48 19.2 7.04 29.44 7.04 12.8 0 26.24-3.84 37.12-12.16l410.88-291.84V896c0 26.24 21.76 48 48 48s48-21.76 48-48V128c0-26.24-21.12-48-48-48zM289.28 769.28V254.72L651.52 512l-362.24 257.28z" p-id="3797" fill="#e6e6e6"></path></svg>