<?xml version="1.0" standalone="no"?><!DOCTYPE svg PUBLIC "-//W3C//DTD SVG 1.1//EN" "http://www.w3.org/Graphics/SVG/1.1/DTD/svg11.dtd"><svg t="1774709918752" class="icon" viewBox="0 0 1024 1024" version="1.1" xmlns="http://www.w3.org/2000/svg" p-id="43686" xmlns:xlink="http://www.w3.org/1999/xlink" width="200" height="200"><path d="M422.089712 201.809506c-116.785646 0-231.323535 40.166444-322.504295 112.974231-8.013743 6.450086-12.9979 15.636572-13.975186 25.898073-0.977286 10.163772 2.247757 20.523001 8.795572 28.341286l277.451422 328.954381-99.878603-4.690972v50.427944h138.285932l82.28746 97.630846 38.602787-32.543615-59.516702-65.184959h429.126169c10.2615 0 20.229815-4.202329 27.364001-11.531972 7.231914-7.427372 11.043329-17.1025 10.750143-27.461729-7.427372-277.353693-239.141821-503.008971-516.593243-503.008972z m387.884711 259.860278L639.731246 566.14163c-21.891201-31.273144-50.427944-57.56213-83.460202-76.912388L645.985875 310.776866a475.058599 475.058599 0 0 1 163.890819 150.990647zM392.868868 644.813132l-95.871731-113.658331c21.891201-14.659286 46.225616-25.213972 71.635045-31.468601l24.236686 145.224661z m11.825158-151.088375c5.765986-0.488643 11.531972-0.781829 17.297957-0.781829 29.318572 0 57.366673 5.668257 83.069288 15.929758L430.298912 662.599733 404.596297 493.724757z m58.539415 180.700133l74.957817-149.231532c26.386715 15.929758 49.157473 37.03913 67.13953 61.959916L463.233441 674.327162z m160.665776-56.487116a221.452949 221.452949 0 0 1 22.282115 75.348731H496.2657l127.535789-75.348731z m-13.584271-325.142966l-87.467074 179.820577a264.404657 264.404657 0 0 0-124.310747-18.861615l-30.198129-198.291277a459.109296 459.109296 0 0 1 241.878221 37.332315z m-281.360565-31.077686l33.032258 198.095819c-32.543615 7.622829-63.621302 21.109372-91.278489 40.264173L141.120061 346.447795a468.237144 468.237144 0 0 1 187.83432-84.632945z m357.882038 431.667112c-3.225043-34.30273-12.9979-66.650888-28.145829-95.96946L830.69288 495.777057c32.836801 59.418973 53.164344 126.460775 56.975759 197.607177H686.738691z" p-id="43687" fill="#e6e6e6"></path></svg>