<?xml version="1.0" standalone="no"?><!DOCTYPE svg PUBLIC "-//W3C//DTD SVG 1.1//EN" "http://www.w3.org/Graphics/SVG/1.1/DTD/svg11.dtd"><svg t="1774703503084" class="icon" viewBox="0 0 1024 1024" version="1.1" xmlns="http://www.w3.org/2000/svg" p-id="27281" xmlns:xlink="http://www.w3.org/1999/xlink" width="200" height="200"><path d="M391.533227 373.333333q91.866453-110.066347 104.86784-120.466773 13.86496-10.400427 8.666453-18.199893-0.866987-8.669867-56.333653-29.467307-15.598933-7.799467-53.732694 13.868373-50.26816 20.79744-140.40064 37.266774-18.199893 2.597547-5.20192 15.598933 21.66784 15.598933 58.067627 6.065493 41.601707-10.400427 72.799573-19.06688 13.868373-3.464533 19.933867 2.60096 2.60096 5.20192-6.93248 20.800854-57.20064 111.80032-219.265707 238.332586-13.001387 10.400427 0 11.264 70.198613-10.397013 205.397334-144.728746l12.1344-13.868374z" fill="#e6e6e6" p-id="27282"></path><path d="M379.398827 387.201707q0.866987 3.464533 6.068906 6.065493 38.997333 24.2688 85.797547 59.8016 13.001387 11.264 24.2688 12.997973 6.065493 0 9.53344-7.799466 6.065493-11.267413-6.93248-39.000747-13.0048-31.197867-106.601813-45.933227c-24.2688-4.334933-24.2688-4.334933-12.1344 13.868374zM379.398827 563.99872q99.669333-28.60032 101.399893-28.60032 6.068907-6.065493 2.60096-13.86496-6.065493-8.669867-30.334293-14.731947-25.99936-3.467947-51.131734 6.065494-32.068267 11.264-67.601066 21.66784-39.867733 10.397013-85.797547 15.598933-31.20128 6.065493-7.80288 19.06688 33.80224 19.06688 95.3344 3.464533h2.60096l40.731307-8.666453z" fill="#e6e6e6" p-id="27283"></path><path d="M338.66752 572.665173q2.597547 10.400427 2.597547 131.734187c0 25.99936 36.4032 13.868373 39.000746-12.130987q5.20192-46.800213 8.669867-83.2 5.198507-33.80224-9.536853-45.069653c-19.06688-18.199893-44.199253-17.332907-40.731307 8.669867z" fill="#e6e6e6" p-id="27284"></path><path d="M341.265067 704.39936q-59.8016 15.598933-123.931307 34.665813-19.06688 6.068907-49.401173 4.334934-12.997973 0.866987-14.731947 11.264-0.866987 13.0048 6.93248 20.804266 21.66784 16.46592 53.732693 34.665814 10.400427 2.597547 21.66784-5.20192 33.798827-25.99936 206.267734-101.399894 24.265387-10.400427 42.46528-23.3984 13.001387-7.799467 13.001386-16.46592-5.20192-5.20192-17.33632-2.60096-47.663787 13.86496-99.66592 31.197867l-39.000746 12.1344zM692.268373 459.134293q42.461867-13.001387 87.53152-19.933866 13.001387-0.866987 15.598934 4.334933 6.068907 13.86496 1.733973 51.99872-13.86496 136.065707-42.46528 208.86528-15.598933 45.06624-31.197867 58.934613-8.669867 8.666453-27.736746 0.866987-33.798827-16.469333-62.399147-32.068267-19.06688-8.666453-7.799467 11.267414 39.867733 52.865707 60.665174 91.866453 7.799467 21.66784 28.603733 18.199893 16.462507-0.866987 38.126933-24.2688 62.40256-60.665173 91.00288-293.799253 6.065493-52.865707 27.733334-82.3296 13.868373-19.070293 6.93248-28.603733-13.86496-16.46592-45.06624-29.463894-21.664427-11.267413-45.933227-0.866986-37.266773 16.46592-87.53152 31.197866l-52.86912 13.868374q-59.8016 11.264-95.3344 12.997973-16.46592-0.863573-17.329493 8.669867-0.866987 8.666453 19.063466 19.933866 24.2688 13.86496 45.069654 6.065494 18.199893-6.068907 39.867733-12.1344l53.732693-15.598934z" fill="#e6e6e6" p-id="27285"></path><path d="M638.532267 474.733227q-44.199253 184.599893-166.4 302.465706-21.664427 20.800853-49.39776 44.202667-11.267413 6.065493-13.868374 10.397013-3.464533 6.068907 11.264 6.068907 10.40384 0 52.872534-25.135787 29.463893-18.199893 77.994666-64.996693 91.869867-88.40192 141.267627-288.600747l7.80288-33.80224q7.799467-41.598293 12.997973-83.2 11.267413-93.597013 27.733334-131.730773 6.068907-10.400427-1.733974-18.199893-46.7968-46.800213-84.063573-38.13376-19.06688 6.065493-5.20192 23.3984 24.2688 29.467307 22.534827 57.20064-6.068907 119.6032-25.135787 204.53376l-8.666453 35.5328z" fill="#e6e6e6" p-id="27286"></path></svg>