<?xml version="1.0" standalone="no"?><!DOCTYPE svg PUBLIC "-//W3C//DTD SVG 1.1//EN" "http://www.w3.org/Graphics/SVG/1.1/DTD/svg11.dtd"><svg t="1774703466527" class="icon" viewBox="0 0 1101 1024" version="1.1" xmlns="http://www.w3.org/2000/svg" p-id="26224" xmlns:xlink="http://www.w3.org/1999/xlink" width="215.0390625" height="200"><path d="M131.388092 335.569175q-8.348411-4.174206-26.436636-7.65271-9.044112-2.782804-11.826916 1.391401-4.869907 4.174206 1.391402 16.001122 19.479626 48.003365 29.21944 125.226169 2.087103 23.653832 13.914018 38.959253 13.218318 16.696823 16.696823 5.565608 4.869907-13.218318 3.478505-38.959253l-3.478505-23.653832q-9.044112-77.222804-10.435514-96.702431c-1.391402-15.305421-1.391402-15.305421-12.522617-20.175327z" fill="#e6e6e6" p-id="26225"></path><path d="M250.352953 435.75011q10.435514-63.308786 27.828038-83.484113 15.305421-19.479626-1.391402-29.219439-46.611963-22.958131-49.394767-22.958131-6.261308 0-12.522617 4.869906-25.740935 18.783925-83.484113 30.610842c-20.175327 4.174206-7.65271 26.436636 12.522617 20.175327q12.522617-4.869907 59.13458-13.914019 14.60972-2.782804 18.088224 2.782804 6.261308 4.174206 1.391402 30.610842-2.782804 27.828038-9.044112 60.525981c-4.174206 20.175327 33.393645 20.871028 36.87215 0z" fill="#e6e6e6" p-id="26226"></path><path d="M157.824728 476.100765q2.782804 0 8.348411-0.695701 29.91514-8.348411 96.00673-16.001122 6.957009-0.695701 7.65271-7.65271 0-4.869907-19.479626-16.001122c-11.826916-6.957009-16.696823-5.565608-36.87215 0l-59.13458 16.696823c-20.175327 5.565608-17.392524 25.045234 3.478505 23.653832zM351.229589 205.473099q18.783925 32.002243 43.82916 50.090468 10.435514 2.782804 18.088224-4.869907 4.869907-9.044112 5.565608-20.871028-4.869907-29.21944-54.960375-50.090468-11.131215-4.869907-18.088224-3.478505-4.174206 0.695701-3.478505 9.044113 0 9.044112 9.044112 20.175327zM508.458002 170.688052q-10.435514 20.871028-63.308786 97.398132-6.261308 13.218318 6.95701 9.739813 36.176449-27.132337 92.528225-75.135702 13.218318-14.60972 31.306542-23.653832 16.696823-9.044112 6.261309-22.26243-11.131215-12.522617-32.697944-22.26243-19.479626-9.044112-29.21944-5.565608-10.435514 2.087103-5.565608 12.522617 4.174206 13.218318-6.261308 29.21944zM451.410525 331.394969q40.350655-9.044112 83.484113-18.088224 32.002243-6.957009 36.87215-12.522617 6.261308-4.869907 2.782803-11.131215-4.869907-6.957009-24.349533-12.522617-18.783925-4.174206-96.70243 22.26243-98.093833 18.783925-116.877758 21.566729-25.045234 4.174206-6.95701 15.305421 27.132337 14.60972 66.787291 6.261308 4.869907-2.087103 12.522616-1.391402l42.437758-9.739813zM466.020245 437.837213q27.828038-6.261308 93.919627-13.914019 6.957009 0.695701 13.218318-7.65271 0.695701-6.957009-14.60972-14.60972-18.783925-14.60972-84.875515 4.869907-4.174206 0.695701-6.957009 2.087103l-42.437758 9.044112q-68.874393 9.044112-91.136823 12.522617-19.479626 2.087103-4.174206 13.914019 20.871028 14.60972 50.786169 9.739813 20.871028-4.174206 45.220561-8.348411l41.046356-7.652711zM463.933142 540.105252q67.482991-9.044112 169.055328-9.044113 45.916262 2.087103 50.786169-6.261308 2.782804-8.348411-8.348411-18.088225-36.176449-27.132337-65.395889-21.566729-54.960374 11.131215-146.097197 27.132337l-39.654954 6.261308q-80.005608 10.435514-171.142431 22.958131-15.305421 2.087103-4.174206 13.914019 22.958131 20.871028 50.090468 13.914019 58.438879-16.696823 124.530468-24.349533l40.350655-4.869906z" fill="#e6e6e6" p-id="26227"></path><path d="M425.66959 735.597216q2.782804 18.783925 8.348411 25.740935 4.174206 4.869907 9.739814 3.478504 10.435514-6.261308 16.001121-50.090467 0-9.044112 4.174206-174.620936v-27.828038q0-33.393645 2.087103-74.440001l0.695701-29.219439q0-16.696823 6.957009-48.003365 2.782804-13.218318-7.65271-20.175328-8.348411-4.869907-14.60972-9.044112c-17.392524-11.131215-51.48187-9.044112-42.437758 9.739813q14.60972 25.045234 15.305421 76.527104l0.695701 27.828038q0 33.393645-0.695701 73.048598l-0.695701 26.436636q-4.174206 132.183179 2.087103 190.622058z" fill="#e6e6e6" p-id="26228"></path></svg>