<?xml version="1.0" standalone="no"?><!DOCTYPE svg PUBLIC "-//W3C//DTD SVG 1.1//EN" "http://www.w3.org/Graphics/SVG/1.1/DTD/svg11.dtd"><svg t="1774705651470" class="icon" viewBox="0 0 1024 1024" version="1.1" xmlns="http://www.w3.org/2000/svg" p-id="31458" xmlns:xlink="http://www.w3.org/1999/xlink" width="200" height="200"><path d="M94.238184 908.657775m-48.196094 0a48.196094 48.196094 0 1 0 96.392188 0 48.196094 48.196094 0 1 0-96.392188 0Z" fill="#e6e6e6" p-id="31459"></path><path d="M351.326686 908.657775m-48.196094 0a48.196094 48.196094 0 1 0 96.392188 0 48.196094 48.196094 0 1 0-96.392188 0Z" fill="#e6e6e6" p-id="31460"></path><path d="M447.736874 860.461681L512.001 924.725806l421.486823-421.486823c99.764195-99.764195 99.764195-261.510511 0-361.274706s-261.510511-99.764195-361.274705 0L512.001 202.174395l-60.212118-60.212118c-99.764195-99.764195-261.510511-99.764195-361.274705 0s-99.764195 261.510511 0 361.274706l51.946101 51.946101" fill="#e6e6e6" p-id="31461"></path><path d="M126.746248 603.373178h288.676563v64.270126H126.746248z" fill="#e6e6e6" p-id="31462"></path><path d="M511.999 946.911849l-75.356147-75.354147 22.188043-22.188043 53.168104 53.170104 410.396802-410.396802c45.286088-45.284088 70.228137-105.498206 70.228137-169.542331 0-64.046125-24.942049-124.258243-70.228137-169.544331-93.484183-93.484183-245.60048-93.486183-339.086663 0l-71.310139 71.304139-71.306139-71.304139c-93.484183-93.488183-245.60448-93.484183-339.086663 0C56.31811 198.340387 31.378061 258.554505 31.378061 322.60063c0 64.044125 24.942049 124.256243 70.228137 169.542331l51.946102 51.946102-22.188043 22.188043-51.946102-51.946101C28.204055 463.118905 0 395.026772 0 322.60063c0-72.428141 28.204055-140.520274 79.418155-191.732374 51.2121-51.2101 119.304233-79.418155 191.732375-79.418156 72.426141 0 140.518274 28.204055 191.730374 79.418156l49.116096 49.118096 49.120096-49.118096c105.716206-105.720206 277.736542-105.720206 383.464749 0 51.2101 51.2121 79.418155 119.304233 79.418155 191.732374 0 72.426141-28.204055 140.518274-79.418155 191.730375l-432.582845 432.580844z" fill="#e6e6e6" p-id="31463"></path><path d="M929.375815 313.582612h-31.378061c0-71.122139-57.926113-128.342251-129.048252-128.34225V153.862301c87.856172 0.002 160.426313 71.86214 160.426313 159.720311zM896.547751 347.058678h31.378061v31.378061h-31.378061z" fill="#e6e6e6" p-id="31464"></path><path d="M415.424811 650.37127H126.750248V853.681667a63.486124 63.486124 0 0 0-32.504064-8.916017c-35.230069 0-63.892125 28.660056-63.892125 63.892125s28.660056 63.892125 63.892125 63.892125c34.860068 0 63.270124-28.066055 63.864125-62.788123h0.018V681.749332h225.920441v172.058336a63.492124 63.492124 0 0 0-32.722064-9.044018c-35.230069 0-63.892125 28.660056-63.892125 63.892125 0 35.230069 28.660056 63.892125 63.892125 63.892125 34.860068 0 63.270124-28.066055 63.864125-62.788123l0.234-259.388507zM126.750248 908.859775c-0.11 17.836035-14.642029 32.312063-32.504064 32.312063-17.928035 0-32.514064-14.586028-32.514063-32.514063s14.586028-32.514064 32.514063-32.514064c17.860035 0 32.392063 14.478028 32.504064 32.312063v0.404001z m224.574438 32.312063c-17.928035 0-32.514064-14.586028-32.514063-32.514063s14.586028-32.514064 32.514063-32.514064c17.928035 0 32.514064 14.586028 32.514064 32.514064s-14.584028 32.514064-32.514064 32.514063zM126.746248 587.621148h288.676563v31.378061H126.746248z" fill="#e6e6e6" p-id="31465"></path></svg>