<?xml version="1.0" standalone="no"?><!DOCTYPE svg PUBLIC "-//W3C//DTD SVG 1.1//EN" "http://www.w3.org/Graphics/SVG/1.1/DTD/svg11.dtd"><svg t="1774711473784" class="icon" viewBox="0 0 1024 1024" version="1.1" xmlns="http://www.w3.org/2000/svg" p-id="49564" xmlns:xlink="http://www.w3.org/1999/xlink" width="200" height="200"><path d="M512 1024C230.4 1024 0 793.6 0 512S230.4 0 512 0s512 230.4 512 512-230.4 512-512 512z m0-938.666667C277.333333 85.333333 85.333333 277.333333 85.333333 512s192 426.666667 426.666667 426.666667 426.666667-192 426.666667-426.666667S746.666667 85.333333 512 85.333333z" fill="#e6e6e6" p-id="49565"></path><path d="M426.666667 733.866667c-8.533333 0-12.8 0-21.333334-4.266667-12.8-8.533333-21.333333-25.6-21.333333-38.4V332.8c0-17.066667 8.533333-29.866667 21.333333-38.4 12.8-8.533333 29.866667-4.266667 42.666667 4.266667l256 179.2c12.8 8.533333 17.066667 21.333333 17.066667 34.133333s-8.533333 25.6-17.066667 34.133333l-256 179.2c-4.266667 4.266667-12.8 8.533333-21.333333 8.533334z m42.666666-320v192l140.8-98.133334L469.333333 413.866667z" fill="#e6e6e6" p-id="49566"></path></svg>