<?xml version="1.0" standalone="no"?><!DOCTYPE svg PUBLIC "-//W3C//DTD SVG 1.1//EN" "http://www.w3.org/Graphics/SVG/1.1/DTD/svg11.dtd"><svg t="1774709163877" class="icon" viewBox="0 0 1024 1024" version="1.1" xmlns="http://www.w3.org/2000/svg" p-id="34976" xmlns:xlink="http://www.w3.org/1999/xlink" width="200" height="200"><path d="M576.9472 818.944c3.84-20.224 5.9392-47.4624 6.9376-69.504 23.6288 7.168 186.3168-134.2208 52.1216-191.104l-1.2032-0.512c-25.4464 43.5456-63.488 92.6976-119.3216 133.0944 6.5792 13.2352 14.336 25.856 23.2192 37.6576-29.184 23.1424-55.4496 38.8352-59.0848 41.728-0.6656 0-12.1344-14.8224-25.3952-42.8032-17.664 8.5504-35.84 15.872-54.528 21.9392-103.3472 33.6128-139.2384-134.4-125.0816-170.2656 10.9056-27.6992 50.3296-76.6208 140.672-97.6128 1.4848-15.9488 3.6096-32.4096 6.7072-49.4848-53.5552 2.048-110.3872-4.4288-164.7616-26.624 11.2128-20.48 21.632-41.344 31.2832-62.5664 0 0 49.5872 23.424 151.7056 14.3872A763.008 763.008 0 0 1 479.6416 256l62.5408 27.8016s-10.8544 23.7056-23.1936 61.4144a880.9216 880.9216 0 0 0 106.5728-30.1312c19.456 32.8704 45.184 52.1216 45.184 52.1216s-73.7792 38.656-172.928 56.448a660.3008 660.3008 0 0 0-8.448 48.2816c32.6656-1.3568 69.76 0.4352 111.872 6.4512 15.5904-15.2832 13.9008-41.6768 13.9008-41.6768l66.048 10.4192s-4.096 18.7136-15.3856 47.104c19.8656 7.6288 76.0576 34.7648 88.32 109.2608 13.7728 83.4304-94.464 222.5408-177.2032 215.4496z m-246.6048-204.6208c-2.1504 17.664 11.776 76.4416 34.7392 76.4416s52.1472-17.3824 52.1472-17.3824-12.6976-65.024-13.9008-111.1808c-38.2464 8.9856-70.8352 34.4576-72.9856 52.1216z m227.072-64.5632c-9.8304-4.8128-79.8976 0-79.8976 0-6.784 15.36 10.4192 79.9232 10.4192 79.9232s79.36-75.1104 69.504-79.9232z" fill="#e6e6e6" p-id="34977"></path></svg>