<?xml version="1.0" standalone="no"?><!DOCTYPE svg PUBLIC "-//W3C//DTD SVG 1.1//EN" "http://www.w3.org/Graphics/SVG/1.1/DTD/svg11.dtd"><svg t="1774971227486" class="icon" viewBox="0 0 1024 1024" version="1.1" xmlns="http://www.w3.org/2000/svg" p-id="5747" xmlns:xlink="http://www.w3.org/1999/xlink" width="200" height="200"><path d="M512 133.12C302.6944 133.12 133.12 302.6944 133.12 512s169.5744 378.88 378.88 378.88 378.88-169.5744 378.88-378.88S721.3056 133.12 512 133.12z m234.9056 198.8608c-3.8912 1.2288-7.7824 2.2528-11.4688 3.2768l5.9392 15.9744c2.6624 7.3728-2.6624 15.1552-10.4448 15.1552h-72.704v3.8912c0 5.12-3.2768 9.6256-7.9872 11.4688v18.432c4.7104 1.8432 7.9872 6.144 7.9872 11.4688v3.8912h88.8832l-2.048 5.12c-6.5536 15.7696-21.7088 26.0096-38.7072 26.0096h-55.9104l12.288 235.52c11.4688 2.8672 19.456 13.1072 19.456 24.7808l1.024 25.3952H589.824v-25.3952c0-11.8784 8.192-22.1184 19.456-24.7808l12.288-235.52H402.6368l12.288 235.52c11.4688 2.8672 19.456 13.1072 19.456 24.7808v25.3952h-93.3888l1.024-25.3952c0-11.6736 7.9872-21.9136 19.456-24.7808l12.288-235.52h-55.9104c-16.9984 0-32.3584-10.24-38.7072-26.0096l-2.048-5.12h88.8832V411.648c0-5.12 3.2768-9.6256 7.9872-11.4688v-18.432c-4.7104-1.8432-7.9872-6.3488-7.9872-11.4688v-3.8912h-72.704c-7.7824 0-13.1072-7.7824-10.4448-15.1552l5.9392-15.9744c-3.8912-1.024-7.7824-2.048-11.4688-3.2768 0 0-29.4912-14.1312-33.5872-40.3456 0 0 85.1968 34.2016 260.5056 34.2016h15.5648c175.3088 0 260.5056-34.2016 260.5056-34.2016-3.8912 26.4192-33.3824 40.3456-33.3824 40.3456z" p-id="5748" fill="#e6e6e6"></path></svg>