<?xml version="1.0" standalone="no"?><!DOCTYPE svg PUBLIC "-//W3C//DTD SVG 1.1//EN" "http://www.w3.org/Graphics/SVG/1.1/DTD/svg11.dtd"><svg t="1774971288428" class="icon" viewBox="0 0 1024 1024" version="1.1" xmlns="http://www.w3.org/2000/svg" p-id="7194" xmlns:xlink="http://www.w3.org/1999/xlink" width="200" height="200"><path d="M512 133.12C302.6944 133.12 133.12 302.6944 133.12 512s169.5744 378.88 378.88 378.88 378.88-169.5744 378.88-378.88S721.3056 133.12 512 133.12z m-49.3568 220.9792c0.4096-6.7584 0.6144-13.5168 0.8192-20.48 0.2048-7.168 3.8912-10.8544 11.0592-10.8544h19.6608c2.6624-16.5888 5.5296-32.768 8.192-48.9472 1.024-5.9392 4.3008-9.216 9.8304-9.216 4.9152 0 8.6016 3.4816 9.4208 9.0112 2.6624 16.1792 5.3248 32.5632 8.192 48.9472h20.48c5.5296 0 9.6256 3.2768 10.0352 8.6016 0.8192 13.1072 1.2288 26.2144 1.8432 39.5264h-100.352c0.2048-5.3248 0.6144-11.0592 0.8192-16.5888z m-17.8176 75.5712c-6.5536-0.4096-10.24-4.096-10.24-10.6496v-5.9392c0-9.216 3.2768-12.4928 12.6976-12.4928h129.8432c9.4208 0 12.6976 3.2768 12.6976 12.9024v4.5056c0 7.9872-3.4816 11.4688-11.6736 11.6736h-7.5776c8.8064 47.3088 22.9376 91.9552 42.8032 135.3728h-202.1376c19.8656-43.4176 33.9968-88.2688 42.8032-135.3728h-9.216z m162.6112 329.3184c-9.216-45.6704-50.3808-77.4144-95.4368-77.4144-45.4656 0.2048-86.016 32.3584-95.0272 77.6192h-149.9136c44.6464-39.7312 82.1248-84.3776 113.2544-135.7824H360.448c-2.2528 0-4.7104 0-6.7584-0.8192-5.12-1.8432-6.3488-6.3488-6.144-11.4688 0.2048-6.144-1.4336-12.9024 6.144-15.9744 1.6384-0.6144 3.4816-0.8192 5.3248-0.8192h306.7904c7.7824 0 11.0592 3.6864 11.4688 11.4688 0.6144 14.9504-1.8432 18.432-17.408 17.6128-4.7104-0.2048-9.6256 0-15.36 0 30.9248 51.2 68.4032 95.8464 112.8448 135.5776h-149.9136z" p-id="7195" fill="#e6e6e6"></path></svg>