<?xml version="1.0" standalone="no"?><!DOCTYPE svg PUBLIC "-//W3C//DTD SVG 1.1//EN" "http://www.w3.org/Graphics/SVG/1.1/DTD/svg11.dtd"><svg t="1774709868240" class="icon" viewBox="0 0 1024 1024" version="1.1" xmlns="http://www.w3.org/2000/svg" p-id="41793" xmlns:xlink="http://www.w3.org/1999/xlink" width="200" height="200"><path d="M533.382138 918.081213v59.713568c0 17.935721-14.376795 32.484016-32.080201 32.484016-17.816522-0.126496-32.160477-14.666277-32.051009-32.484016v-59.713568c-38.617872-14.048391-64.274734-50.808956-64.137291-91.902021v-108.310055c0-53.841219 43.0793-97.481239 96.1883-97.481238 53.138191 0 96.217492 43.640019 96.217492 97.481238v108.275998c0.152039 41.102795-25.504824 77.882821-64.137291 91.936078z m-181.277763 92.197584H261.964789C141.402834 1010.278797 80.221179 954.480533 80.221179 844.546703v-56.529266c0-86.358075 123.821668-198.553027 228.875658-256.741342-49.854152-59.785331-81.44053-148.494535-81.44053-235.385354 0-163.44178 119.569445-282.012633 284.340652-282.012633 164.734718 0 284.304163 118.570854 284.304163 281.979793 0 86.92366-31.552322 175.632864-81.435665 235.384138 105.086831 58.222371 228.903633 170.383266 228.903634 256.775398v56.529266c0 109.93383-61.17679 165.732093-181.776451 165.732094h-111.130679a32.280892 32.280892 0 0 1-32.08385-32.51564c0-17.930856 14.38166-32.47915 32.085066-32.479151h111.13068c97.646657 0 117.645241-40.290299 117.645241-100.736086v-56.529267c0-55.201055-123.622193-171.248063-232.06361-217.88264l-49.854151-21.421668 42.513715-33.977645c53.308475-42.613453 91.968918-134.649268 91.968918-218.878799 0-127.769813-90.539752-216.983786-220.204578-216.983787s-220.204578 89.213973-220.204578 216.983787c0 84.162634 38.656794 176.198449 91.998109 218.845958l42.480875 33.975213-49.821311 21.424101C267.974581 616.736533 144.357253 732.784758 144.357253 787.98338v56.530483c0 60.444571 20.026559 100.73487 117.640376 100.73487h90.106746c17.703405 0 32.085066 14.582352 32.085065 32.513207 0 17.936937-14.38166 32.516856-32.085065 32.516857z m149.197562-324.9253c17.703405 0 32.080201 14.613976 32.080201 32.51564v108.275998c0 17.936937-14.376795 32.518072-32.080201 32.518073-17.811657-0.147174-32.145881-14.677224-32.051009-32.484016v-108.310055c0-17.933288 14.38166-32.51564 32.051009-32.51564" p-id="41794" fill="#e6e6e6"></path></svg>