<?xml version="1.0" standalone="no"?><!DOCTYPE svg PUBLIC "-//W3C//DTD SVG 1.1//EN" "http://www.w3.org/Graphics/SVG/1.1/DTD/svg11.dtd"><svg t="1774872740229" class="icon" viewBox="0 0 1024 1024" version="1.1" xmlns="http://www.w3.org/2000/svg" p-id="7690" xmlns:xlink="http://www.w3.org/1999/xlink" width="200" height="200"><path d="M816.3 121.7H85.9C52.2 121.7 25 149 25 182.6v780.5c0 33.6 27.2 60.9 60.9 60.9h730.4c33.6 0 60.9-27.3 60.9-60.9V182.6c0-33.6-27.3-60.9-60.9-60.9zM213.4 269.8c33.3 28.3 76 67.2 96.1 93.6l-28.3 28.9c-18.8-25.7-60.9-67.2-94.8-96.1l27-26.4z m20.7 533.1c-5-8.8-17-23.2-23.9-28.9 11.3-9.4 33.3-31.4 33.3-62.2v-226h-96.7v-40.2h136.3V715l66.6-46.5c3.1 10.7 9.4 26.4 12.6 34.5-103.7 75.4-119.4 88-128.2 99.9z m192.8-72.8h-37.7V488.3h183.4v198.4H426.9v43.4z m-63.5-307.7V386h240.5v36.4H363.4z m329.1 342.8c0 27.6-6.3 40.8-25.1 47.7-18.8 7.5-51.5 8.2-103 8.2-1.9-11.9-8.2-30.8-14.4-42.1 40.2 1.3 77.2 0.6 87.9 0.6 10.7-0.6 14.4-3.8 14.4-15.1V320.1H347.1v-38.9h345.3v484zM435.3 516.7h104v121.6h-104V516.7zM998.9 60.9v730.4c0 33.6-27.3 60.9-60.9 60.9V109.6c0-16.8-13.6-30.4-30.4-30.4H146.8c0-33.6 27.3-79.2 60.9-79.2h730.4c33.6 0 60.8 27.3 60.8 60.9z" fill="#e6e6e6" p-id="7691"></path></svg>