<?xml version="1.0" standalone="no"?><!DOCTYPE svg PUBLIC "-//W3C//DTD SVG 1.1//EN" "http://www.w3.org/Graphics/SVG/1.1/DTD/svg11.dtd"><svg t="1774703239663" class="icon" viewBox="0 0 1024 1024" version="1.1" xmlns="http://www.w3.org/2000/svg" p-id="12882" xmlns:xlink="http://www.w3.org/1999/xlink" width="200" height="200"><path d="M944.51 157.06H79.69c-37.27 0-67.59 30.32-67.59 67.6v574.93c0 37.27 30.32 67.6 67.59 67.6h864.82c37.27 0 67.59-30.32 67.59-67.6V224.66c0-37.27-30.32-67.6-67.59-67.6zM79.69 207.7h864.82c9.35 0 16.95 7.61 16.95 16.96v70.1H62.74v-70.1c0-9.35 7.6-16.96 16.95-16.96zM295.3 660.74c-81.95 0-148.62-66.67-148.62-148.61s66.67-148.61 148.62-148.61c81.93 0 148.6 66.67 148.6 148.61s-66.67 148.61-148.6 148.61zM96.04 512.13c0 69.73 36.08 131.11 90.47 166.72H62.74V345.41h123.77c-54.39 35.61-90.47 96.99-90.47 166.72z m398.5 0c0-69.73-36.08-131.11-90.47-166.72h234.18c-54.4 35.61-90.47 96.99-90.47 166.72s36.08 131.11 90.47 166.72H404.07c54.4-35.61 90.47-96.99 90.47-166.72z m252.49 148.61c-81.95 0-148.62-66.67-148.62-148.61s66.67-148.61 148.62-148.61c81.93 0 148.6 66.67 148.6 148.61s-66.67 148.61-148.6 148.61z m199.24-148.61c0-69.73-36.08-131.11-90.47-166.72h105.65v333.45H855.8c54.4-35.62 90.47-97 90.47-166.73z m-1.76 304.42H79.69c-9.35 0-16.95-7.61-16.95-16.96v-70.1h898.71v70.1c0.01 9.35-7.59 16.96-16.94 16.96z" fill="#e6e6e6" p-id="12883"></path><path d="M295.3 402.26c-60.58 0-109.87 49.29-109.87 109.87 0 60.58 49.29 109.87 109.87 109.87s109.86-49.28 109.86-109.87c0-60.58-49.28-109.87-109.86-109.87z m0 169.09c-32.66 0-59.23-26.57-59.23-59.22 0-32.66 26.57-59.23 59.23-59.23s59.22 26.57 59.22 59.23-26.56 59.22-59.22 59.22zM747.03 402.26c-60.58 0-109.87 49.29-109.87 109.87 0 60.58 49.29 109.87 109.87 109.87 60.58 0 109.87-49.28 109.87-109.87 0.01-60.58-49.29-109.87-109.87-109.87z m0 169.09c-32.66 0-59.23-26.57-59.23-59.22 0-32.66 26.57-59.23 59.23-59.23s59.23 26.57 59.23 59.23-26.57 59.22-59.23 59.22z" fill="#e6e6e6" p-id="12884"></path></svg>