<?xml version="1.0" standalone="no"?><!DOCTYPE svg PUBLIC "-//W3C//DTD SVG 1.1//EN" "http://www.w3.org/Graphics/SVG/1.1/DTD/svg11.dtd"><svg t="1774710078009" class="icon" viewBox="0 0 1024 1024" version="1.1" xmlns="http://www.w3.org/2000/svg" p-id="46385" xmlns:xlink="http://www.w3.org/1999/xlink" width="200" height="200"><path d="M747.2 174.3c51.6 0 102 50.5 102 102v445.3c0 13.6 11.1 24.8 24.8 24.8 13.6 0 24.8-11.1 24.8-24.8V276.4c0-78.9-72.7-151.5-151.5-151.5H303c-13.6 0-24.8 11.1-24.8 24.8 0 13.6 11.1 24.8 24.8 24.8h444.2v-0.2zM315.5 478.1" p-id="46386" fill="#e6e6e6"></path><path d="M370.9 436.1c-3.7-2.5-6.3-5-8-7.8-3.9-2.9-6.2-6.5-6.9-10.6-0.9-5.1 0.7-10.6 4.9-16.4l0.6-0.7h-21.7c-4.1 0-7.1 0.8-8.4 2.2-1.1 1.2-1.5 3.5-1.1 6.6V457.3c2.8-3.8 7.6-7 15.7-8h42c-4.6-3.5-10.4-8-17.1-13.2z m-26 53.5c-6.6 0-11.6-2.4-14.8-6.9v42c2.5-2.4 5.9-4.8 10.5-6.8l0.7-0.2c28.7-9 51.8-18.4 68.6-28h-65z m52.1-88.9c17.9 15.5 24.2 20.4 26.3 21.8l0.9 0.6 0.7 1c6.1 8.6 7.1 17.4 3 25.3h15.4V412c0-4.3 0.9-8.1 2.7-11.2h-49z m47 144.8l-0.7-1.4v-27.9c-22.9 15.5-48.8 27.5-77.3 35.9h82.1c-1.4-1.9-2.7-4-4.1-6.6z m39.6-144.8c1.8 3 2.9 6.5 3.4 10.5V449.4h14.8c-2.1-5.9-2.1-14.5 7.8-24.3l0.7-0.6 6.9-5.1c6.2-5.2 12.5-11.4 18.8-18.6h-52.4z m89.1 151.2c-28.4-10.2-54.5-18.3-77.6-24.2-3-0.7-5.7-1.6-8-2.9v21.6L486 548c-1.1 1.5-2.2 2.9-3.3 4.2h90.7c-0.2-0.1-0.5-0.2-0.7-0.3z m19.7 0.3h1.8c1.6 0 4.9 0 5.8-8.5-1.9 3.8-4.5 6.6-7.6 8.5z m1.8-151.5h-23.9c8.2 11 3.3 20.5-0.9 25.5l-0.2 0.2c-6.2 7.2-14.6 14.9-25.1 22.9h42.3c4 0.7 9.9 2.7 13.8 8.9v-48.1c0-9.4-3.6-9.4-6-9.4z m-8.7 88.9H523c25.1 7.3 45.7 13.7 62.6 19.3l0.8 0.3c6.7 3.3 11.3 8 13.7 13.9v-41.6c-4 6.8-10.4 8.1-14.6 8.1z m0 0H523c25.1 7.3 45.7 13.7 62.6 19.3l0.8 0.3c6.7 3.3 11.3 8 13.7 13.9v-41.6c-4 6.8-10.4 8.1-14.6 8.1z m8.7-88.9h-23.9c8.2 11 3.3 20.5-0.9 25.5l-0.2 0.2c-6.2 7.2-14.6 14.9-25.1 22.9h42.3c4 0.7 9.9 2.7 13.8 8.9v-48.1c0-9.4-3.6-9.4-6-9.4z m-1.8 151.5h1.8c1.6 0 4.9 0 5.8-8.5-1.9 3.8-4.5 6.6-7.6 8.5z m-97.3-24.5c-3-0.7-5.7-1.6-8-2.9v21.6L486 548c-1.1 1.5-2.2 2.9-3.3 4.2h90.7c-0.2-0.1-0.5-0.2-0.7-0.3-28.4-10.3-54.5-18.4-77.6-24.2zM487 411.9v37.4h14.8c-2.1-5.9-2.1-14.5 7.8-24.3l0.7-0.6 6.9-5.1c6.2-5.2 12.5-11.4 18.8-18.6h-52.4c1.8 3 2.9 6.5 3.4 10.5v0.7z m-43.7 132.3v-27.9c-22.9 15.5-48.8 27.5-77.3 35.9h82.1c-1.4-1.9-2.8-4.1-4.1-6.6l-0.7-1.4z m-19.1-121.1l0.7 1c6.1 8.6 7.1 17.4 3 25.3h15.4V412c0-4.3 0.9-8.1 2.7-11.2h-49c17.9 15.5 24.2 20.4 26.3 21.8l0.9 0.5z m-79.3 66.5c-6.6 0-11.6-2.4-14.8-6.9v42c2.5-2.4 5.9-4.8 10.5-6.8l0.7-0.2c28.7-9 51.8-18.4 68.6-28h-65z m-14.7-32.2c2.8-3.8 7.6-7 15.7-8H388c-4.6-3.5-10.4-8-17.1-13.2-3.7-2.5-6.3-5-8-7.8-3.9-2.9-6.2-6.5-6.9-10.6-0.9-5.1 0.7-10.6 4.9-16.4l0.6-0.7h-21.7c-4.1 0-7.1 0.8-8.4 2.2-1.1 1.2-1.5 3.5-1.1 6.6V457.4zM733 217.5H197.4c-40.4 0-73.1 32.7-73.1 73.1v535.5c0 40.4 32.7 73.1 73.1 73.1H733c40.4 0 73.1-32.7 73.1-73.1V290.6c0-40.4-32.7-73.1-73.1-73.1zM284.7 547.7V397.6c0.9-17.6 9.9-39 47.7-40.7h105c0.3-0.7 0.7-1.6 1-2.8l0.2-0.8 0.5-0.7c8.1-12.2 16.9-18.4 26-18.4l0.9 0.1c9.9 1.5 16.8 5.2 20.5 11 2.1 3.3 3.2 7.2 3.1 11.6h122.2c22.6 1.3 35.8 14.5 37.2 37.2v155.5c0 17.6-4.1 30.4-12.2 38.1-6.3 6-15 8.8-25.6 8.2H329.4c-1 0-2.1 0.1-3.1 0.1-13 0-23.1-3.6-30.2-10.6-8.2-8.2-12.1-20.9-11.4-37.7z m394.1 74.1c-2.1 18.4-13.5 21.2-20.1 21.2H385.6l-3.7 8.5h210.4c12.6-0.6 22.5 2.7 29.5 9.6 8.4 8.4 12.3 21.9 11.6 40.4-1.2 39.7-17.9 65.7-49.4 77l-1 0.3c-12.7 2.4-28.1 3.6-45.7 3.6-42.8 0-100.3-7.1-171-21.1l-0.5-0.1c-14.9-4.4-21.3-15-18.3-29.8l0.2-0.7c2.5-7.6 9.9-20.1 30.8-18.1l0.5 0.1c55.2 10.3 97.8 16.8 126.7 19.1 27.9 3.3 48.6 3.4 61.8 0.3 9.4-4.9 15-12.4 17-22.9 0.5-6.3-0.7-9.1-1.8-10.3-1.1-1.3-3.1-1.9-6-1.9H369.3c-21.4-0.7-34.8-5.8-41.2-15.3-4.9-7.3-5.3-16.7-1.2-27.9l0.4-0.8 5.5-10h-57.6c-15 0-23.6-8-23.6-21.9v-0.6c1.5-13.4 10.2-21.6 24.7-23h381.4c7 0.9 19.1 5 21.1 22.9l0.1 0.7-0.1 0.7z m-93.3-132.2H523c25.1 7.3 45.7 13.7 62.6 19.3l0.8 0.3c6.7 3.3 11.3 8 13.7 13.9v-41.6c-4 6.8-10.4 8.1-14.6 8.1z m0.9-40.2c4 0.7 9.9 2.7 13.8 8.9v-48.1c0-9.5-3.6-9.5-6-9.5h-23.9c8.2 11 3.3 20.5-0.9 25.5l-0.2 0.2c-6.2 7.2-14.6 14.9-25.1 22.9h42l0.3 0.1z m6 102.8h1.8c1.6 0 4.9 0 5.8-8.5-1.9 3.8-4.5 6.6-7.6 8.5z m-19.7-0.3c-28.4-10.2-54.5-18.3-77.6-24.2-3-0.7-5.7-1.6-8-2.9v21.6L486 548c-1.1 1.5-2.2 2.9-3.3 4.2h90.7c-0.2-0.1-0.5-0.2-0.7-0.3z m-85.7-140v37.4h14.8c-2.1-5.9-2.1-14.5 7.8-24.3l0.7-0.6 6.9-5.1c6.2-5.2 12.5-11.4 18.8-18.6h-52.4c1.8 3 2.9 6.5 3.4 10.5v0.7z m-43.7 132.3v-27.9c-22.9 15.5-48.8 27.5-77.3 35.9h82.1c-1.4-1.9-2.8-4.1-4.1-6.6l-0.7-1.4z m-19.1-121.1l0.7 1c6.1 8.6 7.1 17.4 3 25.3h15.4V412c0-4.3 0.9-8.1 2.7-11.2h-49c17.9 15.5 24.2 20.4 26.3 21.8l0.9 0.5z m-79.3 66.5c-6.6 0-11.6-2.4-14.8-6.9v42c2.5-2.4 5.9-4.8 10.5-6.8l0.7-0.2c28.7-9 51.8-18.4 68.6-28h-65z m-14.7-79.4v47.2c2.8-3.8 7.6-7 15.7-8H388c-4.6-3.5-10.4-8-17.1-13.2-3.7-2.5-6.3-5-8-7.8-3.9-2.9-6.2-6.5-6.9-10.6-0.9-5.1 0.7-10.6 4.9-16.4l0.6-0.7h-21.7c-4.1 0-7.1 0.8-8.4 2.2-1.1 1.2-1.5 3.5-1.1 6.6l-0.1 0.7z" p-id="46387" fill="#e6e6e6"></path></svg>