<?xml version="1.0" standalone="no"?><!DOCTYPE svg PUBLIC "-//W3C//DTD SVG 1.1//EN" "http://www.w3.org/Graphics/SVG/1.1/DTD/svg11.dtd"><svg t="1774709998565" class="icon" viewBox="0 0 1024 1024" version="1.1" xmlns="http://www.w3.org/2000/svg" p-id="44818" xmlns:xlink="http://www.w3.org/1999/xlink" width="200" height="200"><path d="M613.374976 190.036992c66.804736-33.238016 150.08768-18.19648 200.617984 41.194496 48.575488 57.073664 51.863552 137.474048 13.426688 197.464064-9.573376 0.033792-19.598336-1.605632-29.85984-4.667392-40.721408-12.14976-83.260416-45.512704-117.504-86.639616-34.347008-41.218048-59.50464-89.339904-65.427456-130.920448C613.82656 200.807424 613.39648 195.315712 613.374976 190.036992L613.374976 190.036992zM276.017152 646.480896c-0.508928 29.55264 14.375936 45.82912 42.878976 50.382848L632.497152 486.109184c-43.32032-27.372544-80.208896-72.511488-99.308544-119.979008L276.017152 646.480896 276.017152 646.480896zM286.256128 713.36448c-26.073088 27.193344-33.939456 55.379968-27.79136 76.399616 2.5088 8.600576 7.51616 16.0256 14.669824 21.553152 7.571456 5.854208 17.777664 9.70752 30.231552 10.781696 42.494976 3.649536 106.04544-23.789568 180.308992-107.004928 74.636288-83.632128 141.893632-123.314176 196.989952-132.987904 33.340416-5.842944 62.61248-0.984064 86.92224 11.788288 24.298496 12.772352 43.126784 33.35168 55.684096 58.927104 19.597312 39.94112 23.643136 92.38016 8.747008 145.590272l-43.589632-12.229632c11.866112-42.402816 9.109504-83.247104-5.741568-113.502208-8.341504-16.999424-20.591616-30.526464-36.189184-38.731776-15.606784-8.204288-35.091456-11.199488-58.021888-7.177216-45.908992 8.047616-103.863296 43.285504-170.950656 118.455296C432.173056 840.860672 354.225152 871.973888 299.649024 867.295232c-21.47328-1.8432-39.804928-9.075712-54.1696-20.185088-14.804992-11.449344-25.213952-26.888192-30.435328-44.75392-10.386432-35.521536 0.226304-80.345088 38.595584-120.353792L286.256128 713.36448 286.256128 713.36448zM802.215936 457.853952c-50.721792-16.7936-101.398528-56.349696-141.193216-104.133632-36.23424-43.500544-64.113664-94.550016-75.37152-142.07488-29.779968 36.663296-41.883648 83.634176-35.328 128.749568 18.217984 54.757376 65.494016 111.44704 118.181888 135.655424C712.671232 488.832 761.439232 483.103744 802.215936 457.853952z" p-id="44819" fill="#e6e6e6"></path></svg>